<?xml version="1.0" encoding="utf-8"?>
<!-- Generator: Adobe Illustrator 24.0.1, SVG Export Plug-In . SVG Version: 6.00 Build 0)  -->
<svg version="1.1" id="Publicdomainvectors.org" xmlns="http://www.w3.org/2000/svg" xmlns:xlink="http://www.w3.org/1999/xlink"
	 x="0px" y="0px" viewBox="0 0 600 600" style="enable-background:new 0 0 600 600;" xml:space="preserve">
<style type="text/css">
	.st0{fill-rule:evenodd;clip-rule:evenodd;fill:#44190D;}
	.st1{fill-rule:evenodd;clip-rule:evenodd;fill:#5F1E0C;}
	.st2{fill-rule:evenodd;clip-rule:evenodd;fill:#8F281D;}
	.st3{fill-rule:evenodd;clip-rule:evenodd;fill:#CE3927;}
	.st4{fill-rule:evenodd;clip-rule:evenodd;fill:#FBAE18;}
</style>
<rect x="2.47" y="-0.19" class="st0" width="602.23" height="603.05"/>
<path class="st1" d="M604.7,551.46v12.86c-7.33,2.68-12.3,7.01-13.98,13.65c-25-24.95-42.88-7.14-17.05,15.29
	c-2.33,3.33-3.67,6.53-3.83,9.6h-47.11c-6.17-12.21-16.05-11.59-20.6,0h-36.15c-1.9-1.65-5.1-3.21-9.94-4.63
	c45.29-19.05,25.55-39.84-7.35-15.22c0.06-13.87-10.59-15.71-22.15-16.52c19.37-4.05,29.73-10.96,17.87-24.9
	c16.43,3.23,24.73-2.25,19.72-21.98c13.82,8.25,27.19,11.87,39.75,7.02c-12.23-11.59-22.77-26.77-24.73-43.9
	c-0.78-6.78,10.39-8.53,9.95-2.3c-1.13,15.78,5.07,30.86,16.54,45.31c10.72-10.57,11.81-24.28,11.34-38.51
	c15.01,13.13,23.43,6.4,29.18-8.39c5.82,16.67,16.44,14.57,29.9,1.36c-6.45,9.19-8.36,18.63-0.93,28.62
	c-32.69,24.45-12.87,35.99,13.69,10.33c-4.51,16.87,4.3,18.11,14.61,17.59C600.86,543.58,601.83,548.15,604.7,551.46z"/>
<path class="st1" d="M78.64,90.23c11.57-1.39,14.66-11.61,15.07-24.61c3.32,13.68,8.41,23.79,19.49,21.82
	c-6.27,14.37-5.88,28.05,15.07,27.07c-13.2,37.41,16.36,43.08,29.16,0.66c6.8,14.3,18.2,9.34,31.12-1.97
	c-11.86,16.42-11.24,27.54,3.11,32.81c-14.41,1.83-24.05,5.63-9.34,19.52c-49-3.54-40.79,23.94-0.33,16.9
	c-6.32,12.35,2.34,18.81,12.29,24.77c-19.1-5.16-31.47-3.71-27.19,14.11c-13.19-10.32-23.07-9.2-27.52,10.66
	c-8.59-13.62-18.88-22.91-32.27-24.28c5.67,15.88,8.2,34.2,2.21,50.36c-2.37,6.39-13.12,2.89-9.91-2.46
	c8.14-13.56,9.43-29.81,5.73-47.9c-14.34,4.56-21.51,16.3-27.52,29.2c-7.45-18.51-18-16.33-29.82-5.74
	c2.34-17.51-8.08-20.44-26.05-14.76c9.9-5.27,15.87-12.83,13.76-25.1c40.2-6.99,27.74-26.26-7.54-15.42
	c11.65-13,4.35-18.1-5.08-22.31c13.14-12.04,1.42-21.59-7.53-30.84c16.3,7.06,29.73,8.75,37.51-0.17
	c11.02,33.59,35.01,25.8,22.12-5.9C85.45,111.18,88.05,102.91,78.64,90.23z"/>
<path class="st1" d="M250.97,178.09c7.23-9.15,2.24-18.58-6.61-28.1c11.98,7.37,22.7,10.95,29.18,1.74
	c5.66,14.62,15.55,24.06,29.74,8.58c16.95,35.86,41.91,19.04,21.16-20.1c14.89,5.36,19.49-6.21,20.71-23.35
	c3.13,20.02,11.39,27.48,25.29,21.09c-8.95,11.46-13.11,20.96,7.1,20.44c-37.28,32.05-12.12,45.77,11.65,12.23
	c4.2,13.22,14.89,11.7,26.14,8.92c-17.19,9.81-24.94,19.57-9.38,29.19c-16.63,1.97-22.84,9.74-12.04,26.98
	c-15.67-3.61-29.51-2.95-39.98,5.53c15.19,7.28,29.87,18.49,36.99,34.19c2.81,6.21-7.28,11.31-8.77,5.24
	c-3.76-15.37-14.28-27.82-29.62-38.05c-6.97,13.35-3.81,26.74,1,40.14c-18.31-7.89-24.26,1.1-25.2,16.95
	c-10.65-14.08-20.11-8.81-28.87,7.89c3.32-10.73,2.25-20.3-7.88-27.52c23.62-33.31,1.22-38.21-16.19-5.63
	c-0.88-17.44-9.64-15.91-19.3-12.25c0.86-17.81-14.18-16.33-27.04-16.58c16.53-6.49,27.26-14.76,26.51-26.58
	c31.44,16.07,43-6.38,11.54-19.79C270.54,188.16,266.57,180.46,250.97,178.09z"/>
<path class="st1" d="M71.63,418.94c-3.46-11.14-14.05-12.34-26.89-10.41c12.84-5.74,21.85-12.58,17.91-23.14
	c15.25,3.58,28.61,0.73,23.87-19.73c39.13,6.25,39.36-23.88-4.62-28.84c12.82-9.28,5.89-19.61-7.55-30.3
	c18.27,8.72,29.08,6.1,31.66-8.98c4.4,13.87,9.87,22.67,20.86,5.67c5.36,48.9,30.88,35.86,16.66-2.72c13.27,4,18.05-5.7,22.11-16.57
	c-1.63,19.75,2.04,31.66,18.76,24.24c-7.76,14.86-4.87,24.38,15.44,25.18c-11.82,10.92-19.1,22.72-18.02,36.17
	c14.58-8.45,32.11-14.25,49.07-11.26c6.71,1.18,5.21,12.4-0.63,10.21c-14.79-5.57-30.98-3.91-48.08,2.99
	c7.07,13.3,19.89,18.25,33.65,21.84c-16.84,10.67-12.79,20.67-0.26,30.4c-17.62,0.85-18.62,11.64-9.8,28.32
	c-6.96-8.8-15.47-13.32-27.14-9.03c-14.12-38.33-30.8-22.59-13.79,10.2c-14.87-9.13-18.56-1.02-21,9.03
	c-14.19-10.77-21.46,2.5-28.93,12.99c3.99-17.33,3.23-30.86-6.93-36.92c31-16.91,19.02-39.14-9.79-20.72
	C90.97,408.46,82.38,407.38,71.63,418.94z"/>
<path class="st1" d="M540.15,309.36c5.47,10.3,16.1,9.5,28.35,5.2c-11.55,8.03-19.12,16.44-13.29,26.08
	c-15.65-0.67-28.24,4.62-19.77,23.84c-39.6,1.17-34.22,30.82,9.91,27.47c-10.87,11.51-2.14,20.37,13.06,28.36
	c-19.58-5.15-29.7-0.57-29.44,14.74c-6.9-12.8-13.92-20.43-21.55-1.68c-14.37-47.04-37.01-29.46-15.85,5.79
	c-13.78-1.45-16.67,8.97-18.64,20.41c-2.08-19.71-7.9-30.73-22.95-20.31c4.86-16.04,0.25-24.86-19.86-21.86
	c9.58-12.93,14.53-25.89,10.97-38.9c-12.75,11.02-28.89,19.99-46.11,20.23c-6.81,0.09-7.43-11.21-1.28-10.14
	c15.56,2.71,31.17-1.95,46.68-11.92c-9.42-11.74-22.94-14.21-37.12-15.17c14.56-13.63,8.72-22.7-5.4-29.92
	c17.15-4.12,16.13-14.92,4.36-29.65c8.48,7.35,17.67,10.2,28.34,3.8c21.01,35.03,34.47,16.44,11.64-12.6
	c16.31,6.19,18.43-2.47,18.95-12.79c15.95,7.93,20.62-6.46,26.01-18.16c-0.69,17.77,2.58,30.93,13.68,34.98
	c-27.31,22.4-11.4,42,13.47,18.52C523.09,323.27,531.73,322.72,540.15,309.36z"/>
<path class="st1" d="M569.16,89.13c3.68,11.07,14.29,12.05,27.09,9.86c-12.72,6-21.59,13.02-17.44,23.49
	c-15.32-3.27-28.62-0.16-23.47,20.2c-39.24-5.46-38.87,24.68,5.2,28.74c-12.63,9.53-5.5,19.73,8.16,30.14
	c-18.44-8.35-29.19-5.51-31.48,9.62c-4.67-13.78-10.33-22.46-20.97-5.25c-6.34-48.78-31.59-35.23-16.6,3.06
	c-13.34-3.73-17.93,6.06-21.77,17.01c1.23-19.78-2.68-31.62-19.25-23.85c7.46-15.01,4.38-24.47-15.94-24.87
	c11.6-11.15,18.64-23.1,17.3-36.52c-14.41,8.74-31.82,14.89-48.83,12.25c-6.73-1.04-5.46-12.3,0.42-10.22
	c14.9,5.27,31.06,3.28,48.01-3.96c-7.33-13.15-20.25-17.84-34.08-21.16c16.62-11.01,12.37-20.93-0.35-30.4
	c17.6-1.2,18.38-12.02,9.23-28.51c7.14,8.66,15.73,13.01,27.31,8.48c14.88,38.04,31.25,21.96,13.58-10.48
	c15.05,8.82,18.58,0.64,20.81-9.45c14.41,10.48,21.41-2.93,28.67-13.57c-3.64,17.4-2.6,30.92,7.67,36.77
	c-30.65,17.53-18.23,39.51,10.2,20.51C550.03,100,558.64,100.9,569.16,89.13z"/>
<path class="st1" d="M381.28,549.41c-10.12,5.78-9.01,16.39-4.36,28.53c-8.36-11.32-16.97-18.66-26.42-12.54
	c0.21-15.68-5.44-28.13-24.38-19.09c-2.33-39.6-31.77-33.35-27.13,10.72c-11.81-10.54-20.4-1.54-27.93,13.9
	c4.57-19.74-0.31-29.75-15.58-29.03c12.58-7.28,19.98-14.53,1.04-21.62c46.54-15.77,28.33-37.91-6.24-15.7
	c1.05-13.83-9.45-16.43-20.92-18.06c19.61-2.66,30.44-8.81,19.6-23.57c16.16,4.39,24.82-0.48,21.24-20.52
	c13.19,9.21,26.27,13.79,39.15,9.84c-11.37-12.44-20.8-28.33-21.54-45.56c-0.29-6.82,10.98-7.77,10.09-1.58
	c-2.25,15.66,2.86,31.14,13.27,46.38c11.45-9.77,13.51-23.38,14.06-37.6c14.03,14.17,22.92,8.06,29.7-6.29
	c4.62,17.04,15.36,15.7,29.73,3.49c-7.09,8.7-9.66,17.99-2.96,28.48c-34.35,22.05-15.4,34.98,12.92,11.29
	c-5.7,16.51,3,18.37,13.32,18.59c-7.45,16.2,7.05,20.45,18.89,25.5c-17.76-0.17-30.79,3.49-34.51,14.72
	c-23.17-26.67-42.26-10.18-18.1,14.03C366.89,532.74,367.69,541.37,381.28,549.41z"/>
<path class="st2" d="M191.64,167.95c-9.68,6.49-7.82,16.99-2.32,28.77c-9.15-10.7-18.26-17.4-27.25-10.62
	c-0.91-15.66-7.43-27.67-25.67-17.3c-5.14-39.34-34.06-31-26.3,12.63c-12.53-9.67-20.45-0.08-26.86,15.86
	c3.15-20.02-2.43-29.65-17.61-27.84c12.03-8.16,18.9-15.92-0.5-21.64c45.29-19.05,25.55-39.84-7.34-15.22
	c0.06-13.87-10.59-15.71-22.15-16.52c19.37-4.05,29.74-10.96,17.87-24.9c16.43,3.23,24.73-2.25,19.72-21.98
	c13.81,8.25,27.19,11.87,39.75,7.02c-12.23-11.59-22.77-26.77-24.73-43.9c-0.78-6.78,10.39-8.53,9.95-2.3
	c-1.12,15.78,5.07,30.86,16.54,45.31c10.72-10.57,11.82-24.28,11.34-38.51c15.01,13.13,23.43,6.4,29.18-8.39
	c5.82,16.67,16.44,14.57,29.9,1.36c-6.45,9.19-8.36,18.63-0.93,28.62c-32.69,24.45-12.87,35.99,13.69,10.33
	c-4.51,16.87,4.3,18.11,14.61,17.59c-6.28,16.69,8.49,19.9,20.66,24.08c-17.72,1.09-30.47,5.68-33.38,17.15
	c-25.01-24.95-42.88-7.13-17.05,15.29C176.1,152.36,177.52,160.91,191.64,167.95z"/>
<path class="st1" d="M186.47,566.73c-1.67,11.54,7.38,17.19,19.8,20.98c-14.06-0.35-25.13,1.94-26.11,13.17
	c-10.98-8.8-22.82-12.27-28.38,1.98h-11.32c-9.31-4.16-16.12-3.52-19.32,0H47.24c-0.38-4.78-4.52-9.49-13.3-14.12
	c15.37-4.76,27.01-12.28,31.81-24.88c-16.79,1.34-35.11-0.98-49.13-10.98c-5.55-3.96,0.63-13.44,4.95-8.94
	c10.96,11.4,26.29,16.88,44.69,18.02c-0.67-15.05-10.11-25.04-20.99-34.21c19.79-2.38,20.43-13.15,13.3-27.33
	c16.27,6.83,21.81-2.48,21.02-21.34c2.5,10.95,8.24,18.69,20.62,19.84c-3.73,40.69,18.1,33.66,16.83-3.27
	c9.5,14.65,16.32,8.92,22.83,0.9c8.18,15.84,20.45,7,31.7,0.75c-11.05,13.92-16.18,26.47-9.61,36.31
	c-35.25,1.91-33.99,27.13-0.07,22.92C164.5,567.86,171.79,572.53,186.47,566.73z"/>
<path class="st1" d="M345.69,10.2c-1.67,11.54,7.38,17.19,19.8,20.98c-14.06-0.35-25.13,1.94-26.11,13.17
	c-12.23-9.8-25.51-12.99-30.02,7.52c-32.63-22.5-45.8,4.6-8.22,28.02c-15.56,2.85-13.75,15.17-6.21,30.6
	c-12.75-15.74-23.63-18.04-32.44-5.53c1.99-14.41,0.83-24.72-16.39-14.11c16.18-46.45-12.46-45.68-16.21-4.72
	c-10.26-9.33-18.74-2.63-27.08,5.43c9.95-17.13,11.77-29.46-6.52-29.97c13.39-10.06,14.88-19.91-3.11-29.38
	c15.37-4.76,27-12.28,31.81-24.88c-14.65,1.17-30.47-0.44-43.58-7.52h17.81c7.79,3.23,16.61,5.03,26.28,5.62
	c-0.09-1.96-0.32-3.83-0.69-5.62h81.64c3.9,0.76,8.8,0.92,14.68,0.19C323.72,11.33,331.01,16,345.69,10.2z"/>
<path class="st2" d="M443.39,97.61c-0.23,11.66,9.44,16.15,22.24,18.37c-13.99,1.39-24.7,5.03-24.29,16.3
	c-13.34-8.21-26.92-9.73-28.86,11.18c-35.16-18.28-44.88,10.24-4.7,28.82c-15.09,4.76-11.77,16.75-2.38,31.14
	c-14.59-14.04-25.67-14.97-32.88-1.48c0.2-14.55-2.23-24.63-18.01-11.97c10.32-48.1-18-43.78-16.66-2.68
	c-11.33-7.98-18.93-0.29-26.2,8.74c7.76-18.23,8.04-30.69-10.17-28.93c12.04-11.64,12.3-21.6-6.72-28.77
	c14.66-6.63,25.28-15.53,28.5-28.63c-16.49,3.41-34.96,3.38-50.11-4.81c-5.99-3.24-1.04-13.42,3.81-9.49
	c12.28,9.95,28.17,13.5,46.57,12.35C321,92.9,310.4,84.16,298.47,76.4c19.35-4.81,18.65-15.58,9.82-28.77
	c16.99,4.76,21.34-5.17,18.22-23.78c3.83,10.55,10.48,17.52,22.91,17.14c1.32,40.84,22.11,31.17,16.3-5.33
	c11.24,13.36,17.29,6.83,22.77-1.93c10.08,14.7,21.15,4.41,31.54-3.18c-9.24,15.18-12.79,28.27-5.05,37.22
	c-34.75,6.26-30.38,31.13,2.76,22.75C421.73,101.44,429.54,105.17,443.39,97.61z"/>
<path class="st2" d="M543.75,189.4c9.18,7.18,18.57,2.12,28.01-6.81c-7.28,12.05-10.79,22.81-1.54,29.23
	c-14.57,5.76-23.92,15.73-8.37,29.83c-35.7,17.21-18.73,42.1,20.21,21.05c-5.25,14.94,6.33,19.48,23.46,20.58
	c-19.98,3.27-27.36,11.59-20.9,25.46c-11.51-8.88-21.02-12.98-20.37,7.25c-32.25-37.11-45.79-11.83-12.13,11.75
	c-13.18,4.29-11.58,14.99-8.73,26.24c-9.91-17.15-19.7-24.85-29.21-9.2c-2.08-16.63-9.88-22.81-27.02-11.87
	c3.5-15.72,2.75-29.57-5.79-40c-7.16,15.26-18.26,30.04-33.89,37.27c-6.18,2.86-11.34-7.21-5.3-8.74
	c15.32-3.87,27.68-14.48,37.79-29.92c-13.38-6.89-26.73-3.63-40.07,1.27c7.76-18.39-1.27-24.29-17.1-25.12
	c13.99-10.76,8.67-20.2-8.07-28.86c10.73,3.26,20.29,2.11,27.43-8.08c33.42,23.43,38.17,0.97,5.52-16.25
	c17.42-1,15.83-9.76,12.11-19.41c17.79,0.74,16.21-14.31,16.38-27.19c6.59,16.51,14.92,27.2,26.71,26.37
	c-15.84,31.6,6.66,43.01,19.84,11.43C533.83,209.06,541.49,205.03,543.75,189.4z"/>
<path class="st2" d="M380.74,401.77c11.64-0.42,15.58-10.34,17.08-23.25c2.16,13.91,6.39,24.41,17.6,23.38
	c-7.45,13.79-8.21,27.45,12.75,28.24c-16.28,36.17,12.7,44.3,29,3.1c5.58,14.82,17.36,10.84,31.18,0.65
	c-13.2,15.37-13.51,26.5,0.35,32.95c-14.52,0.61-24.43,3.59-10.94,18.67c-48.53-7.65-42.66,20.43-1.74,16.81
	c-7.33,11.77,0.76,18.94,10.17,25.72c-18.6-6.75-31.05-6.33-28.28,11.77c-12.28-11.39-22.22-11.1-28.32,8.31
	c-7.42-14.29-16.89-24.42-30.13-26.9c4.32,16.3,5.31,34.76-2.01,50.37c-2.9,6.17-13.32,1.78-9.67-3.28
	c9.24-12.83,11.89-28.92,9.73-47.25c-14.67,3.34-22.8,14.43-29.87,26.79c-5.87-19.08-16.57-17.78-29.23-8.23
	c3.8-17.25-6.34-21.05-24.72-16.9c10.31-4.42,16.89-11.45,15.82-23.85c40.64-3.59,29.85-23.84-6.22-16
	c12.7-11.98,5.85-17.67-3.19-22.66c14.1-10.89,3.22-21.4-4.92-31.36c15.65,8.4,28.9,11.21,37.4,2.99
	c8.17,34.39,32.73,28.65,22.53-4.03C385.77,423.21,389.05,415.19,380.74,401.77z"/>
<path class="st2" d="M128.46,435.19c8.31-8.17,4.53-18.15-3.07-28.7c10.97,8.81,21.17,13.7,28.74,5.36
	c3.8,15.22,12.44,25.81,28.44,12.22c12.36,37.69,39.22,24.12,23.49-17.31c14.11,7.17,20.11-3.73,23.45-20.59
	c0.62,20.26,7.89,28.68,22.47,24.08c-10.3,10.26-15.61,19.16,4.51,21.17c-40.97,27.15-17.71,43.9,10.04,13.58
	c2.52,13.64,13.32,13.46,24.83,12.11c-18.28,7.59-27.18,16.3-12.94,27.8c-16.74-0.11-23.88,6.82-15.29,25.27
	c-15.11-5.53-28.92-6.61-40.36,0.5c14.17,9.12,27.34,22.07,32.46,38.53c2.02,6.51-8.63,10.32-9.35,4.11
	c-1.82-15.71-10.71-29.38-24.66-41.44c-8.57,12.38-7.1,26.06-3.99,39.95c-17.18-10.11-24.21-1.93-27.11,13.68
	c-8.82-15.3-18.86-11.25-29.63,4.23c4.63-10.23,4.75-19.86-4.4-28.29c27.58-30.11,5.96-37.76-15.37-7.6
	c1.3-17.42-7.59-16.99-17.62-14.56c3.07-17.57-12.04-17.97-24.77-19.82c17.21-4.38,28.88-11.25,29.61-23.07
	c29.2,19.86,43.46-0.97,13.91-18.2C146.63,447.62,143.65,439.48,128.46,435.19z"/>
<path class="st2" d="M41.98,320.48c1.41-11.58-7.76-17.02-20.27-20.53c14.06,0.04,25.08-2.51,25.81-13.75
	c12.44,9.52,25.8,12.41,29.84-8.2c33.13,21.75,45.68-5.63,7.59-28.2c15.49-3.2,13.4-15.48,5.52-30.74
	c13.1,15.45,24.02,17.5,32.56,4.8c-1.67,14.45-0.27,24.73,16.7,13.74c-15.12,46.81,13.49,45.38,16.31,4.35
	c10.46,9.09,18.8,2.21,26.95-6.04c-9.56,17.35-11.1,29.72,7.19,29.81c-13.16,10.36-14.42,20.24,3.77,29.31
	c-15.25,5.1-26.72,12.89-31.24,25.59c16.75-1.72,35.12,0.18,49.37,9.86c5.64,3.83-0.32,13.45-4.75,9.05
	c-11.21-11.15-26.67-16.28-45.08-17c1,15.03,10.67,24.81,21.75,33.73c-19.73,2.82-20.13,13.61-12.68,27.62
	c-16.42-6.45-21.75,2.98-20.53,21.81c-2.75-10.89-8.65-18.5-21.06-19.37c2.81-40.76-18.85-33.25-16.75,3.65
	c-9.83-14.43-16.52-8.55-22.85-0.38c-8.54-15.65-20.6-6.53-31.71-0.03c10.73-14.17,15.58-26.83,8.79-36.52
	c35.2-2.7,33.37-27.89-0.45-22.92C63.92,318.85,56.52,314.35,41.98,320.48z"/>
<path class="st2" d="M244.91,282.18c5.51-10.28-1.06-18.68-11.44-26.49c13.09,5.15,24.27,6.79,29.03-3.43
	c8.14,13.4,19.53,20.94,30.78,3.21c22.98,32.32,44.61,11.36,17.3-23.51c15.59,2.65,18.1-9.54,16.29-26.63
	c6.6,19.16,16.04,25.04,28.6,16.31c-6.79,12.86-9.22,22.94,10.58,18.87c-31.07,38.11-3.89,47.19,13.62,9.98
	c6.45,12.28,16.72,8.89,27.3,4.18c-15.2,12.68-21.12,23.65-4.11,30.39c-16.02,4.87-20.78,13.61-7.11,28.68
	c-16.06-0.79-29.57,2.29-38.39,12.48c16.23,4.49,32.66,12.94,42.42,27.14c3.86,5.62-5.18,12.42-7.71,6.7
	c-6.4-14.46-18.94-24.87-35.84-32.24c-4.51,14.37,0.95,26.99,8.03,39.33c-19.41-4.54-23.69,5.36-21.83,21.13
	c-12.96-11.99-21.35-5.14-27.04,12.85c1.39-11.14-1.36-20.38-12.6-25.7c17.41-36.95-5.51-37.83-16.93-2.69
	c-3.93-17.02-12.29-13.97-21.15-8.67c-2.28-17.68-16.82-13.58-29.53-11.56c15.14-9.3,24.24-19.33,21.43-30.83
	c33.78,10.28,41.21-13.85,7.89-21.51C265.94,288.64,260.68,281.76,244.91,282.18z"/>
<path class="st3" d="M295.11,219.1c-5.51,10.28,1.05,18.68,11.43,26.5c-13.09-5.15-24.27-6.8-29.04,3.41
	c-8.13-13.4-19.52-20.95-30.78-3.23c-22.96-32.33-44.6-11.38-17.31,23.5c-15.59-2.66-18.1,9.53-16.3,26.63
	c-6.59-19.16-16.03-25.05-28.59-16.33c6.8-12.86,9.23-22.94-10.57-18.88c31.09-38.09,3.91-47.19-13.61-9.99
	c-6.45-12.28-16.71-8.9-27.3-4.19c15.21-12.68,21.13-23.64,4.12-30.39c16.02-4.86,20.79-13.6,7.13-28.68
	c16.06,0.8,29.57-2.28,38.4-12.46c-16.23-4.5-32.65-12.96-42.41-27.16c-3.86-5.62,5.19-12.41,7.71-6.7
	c6.4,14.46,18.93,24.88,35.83,32.25c4.52-14.37-0.93-26.99-8.01-39.34c19.41,4.55,23.69-5.35,21.84-21.12
	c12.95,11.99,21.34,5.15,27.04-12.84c-1.39,11.14,1.35,20.38,12.58,25.71c-17.42,36.95,5.49,37.83,16.93,2.7
	c3.92,17.02,12.28,13.98,21.14,8.68c2.27,17.69,16.82,13.59,29.53,11.57c-15.14,9.29-24.25,19.32-21.45,30.82
	c-33.77-10.3-41.22,13.83-7.9,21.51C274.08,212.62,279.34,219.51,295.11,219.1z"/>
<path class="st3" d="M542.11,19.71c3.46,11.14,14.04,12.34,26.89,10.41c-12.84,5.74-21.85,12.58-17.92,23.13
	c-15.25-3.58-28.61-0.73-23.87,19.73c-39.13-6.25-39.37,23.88,4.61,28.84c-12.82,9.28-5.89,19.61,7.55,30.3
	c-18.27-8.72-29.08-6.1-31.67,8.98c-4.39-13.87-9.87-22.67-20.86-5.68c-5.36-48.9-30.87-35.86-16.65,2.72
	c-13.27-4-18.05,5.7-22.12,16.57c1.63-19.75-2.04-31.66-18.76-24.24c7.76-14.86,4.88-24.38-15.44-25.19
	c11.83-10.92,19.1-22.72,18.03-36.16c-14.58,8.44-32.11,14.24-49.07,11.26c-6.71-1.18-5.21-12.4,0.63-10.21
	c14.79,5.57,30.99,3.91,48.08-2.99c-7.07-13.3-19.89-18.25-33.64-21.84c16.84-10.67,12.79-20.67,0.26-30.4
	c12.39-0.6,16.56-6.11,14.88-15.13h23.69c11.41,27.42,23.58,21.09,17.9,0h50.24c0.28,0.19,0.57,0.37,0.87,0.55
	c-31,16.91-19.03,39.14,9.79,20.72C522.76,30.19,531.36,31.26,542.11,19.71L542.11,19.71z M2.47-0.19h22.82
	c1.71,1.67,3.77,1.62,5.75,0h49.29c0.07,3.2,0.95,6.23,2.78,9.05c-35.27,1.45-34.34,26.69-0.36,22.92
	c2.45,11.36,9.68,16.13,24.43,10.52c-1.82,11.52,7.15,17.29,19.53,21.23c-14.05-0.54-25.15,1.61-26.28,12.82
	c-12.1-9.96-25.34-13.32-30.12,7.13c-32.34-22.92-45.85,4-8.59,27.91c-15.6,2.65-13.94,14.99-6.6,30.52
	c-12.54-15.91-23.39-18.34-32.37-5.96c2.18-14.38,1.15-24.7-16.21-14.32c10.19-28.08,3.62-38.96-4.06-34V-0.19L2.47-0.19z
	 M604.7,414.3v32.35c-0.59,1.19-0.59,2.53,0,3.93v39.67c-7.84-5.47-15.24-2.88-22.01,11.22c-5.31-15.2-13.23-26.58-25.98-30.94
	c1.95,16.75,0.29,35.17-9.18,49.56c-3.75,5.7-13.44-0.14-9.1-4.63c10.98-11.38,15.9-26.92,16.37-45.37
	c-14.99,1.21-24.63,11.02-33.39,22.24c-3.09-19.72-13.86-19.97-27.75-12.32c6.23-16.53-3.27-21.74-22.05-20.26
	c10.83-2.9,18.35-8.92,19.05-21.35c40.74,2.27,32.94-19.32-3.87-16.72c14.28-10.04,8.31-16.65,0.07-22.88
	c15.51-8.76,6.25-20.72-0.4-31.75c14.29,10.56,27,15.23,36.58,8.31c3.18,35.21,28.3,33.04,22.88-0.76
	c11.22-3.01,15.61-10.48,9.3-24.96c11.58,1.25,16.89-8,20.22-20.57c0.15,14.08,2.84,25.08,14.08,25.66
	c-9.34,12.59-12.04,26,8.59,29.77C583.87,406.91,591.5,419.78,604.7,414.3L604.7,414.3z M358.78,602.86h-10.89
	c-6.58-10.71-17.03-19.08-30.4-25.59c-3.24,8.97-2.45,17.4,0.23,25.59H269.2c1.25-11.34-7.04-11.46-15.44,0h-30.83
	c-4.43-9.94-16.62-7.25-27.42-5.99c15.51-8.65,25.03-18.3,22.71-29.9c33.32,11.69,41.75-12.11,8.78-21.17
	c1.91-11.47-3.06-18.57-18.83-18.81c5.94-10.04-0.28-18.71-10.32-26.95c12.86,5.69,23.97,7.8,29.15-2.21
	c7.57,13.73,18.64,21.75,30.62,4.5c21.61,33.25,44.09,13.22,18.27-22.77c15.47,3.3,18.48-8.78,17.39-25.93
	c5.79,19.42,14.98,25.69,27.89,17.5c-7.33,12.56-10.17,22.53,9.78,19.3c-32.63,36.77-5.86,46.98,13.19,10.54
	c5.93,12.54,16.33,9.59,27.11,5.32c-15.72,12.03-22.09,22.75-5.38,30.19c-16.21,4.2-21.33,12.73-8.31,28.36
	c-16.02-1.46-29.64,1.05-38.88,10.86C334.07,580.66,349.47,589.27,358.78,602.86L358.78,602.86z M2.47,487.62V355.27
	c0.37-0.58,0.73-1.19,1.1-1.84c2.71,16.54,10.73,22.42,27.45,10.84c-2.9,15.84-1.63,29.66,7.29,39.76
	c6.58-15.52,17.12-30.71,32.46-38.53c6.07-3.09,11.61,6.78,5.62,8.54c-15.16,4.45-27.11,15.52-36.64,31.33
	c13.63,6.38,26.85,2.62,40-2.79c-7.06,18.67,2.18,24.22,18.03,24.46c-13.57,11.28-7.9,20.51,9.16,28.53
	c-10.85-2.85-20.35-1.34-27.11,9.11c-34.29-22.15-38.18,0.48-4.9,16.45c-17.36,1.66-15.45,10.36-11.37,19.85
	c-17.81-0.07-15.66,14.91-15.34,27.79c-7.21-16.25-15.94-26.61-27.69-25.34C34.34,473.11,14.8,461.99,2.47,487.62z"/>
<path class="st3" d="M427.22,410.8c-10.43,5.2-9.92,15.86-5.96,28.24c-7.71-11.78-15.89-19.59-25.67-14.01
	c1.09-15.64-3.85-28.4-23.26-20.44c-0.09-39.67-29.84-35.09-27.69,9.17c-11.19-11.19-20.28-2.69-28.66,12.3
	c5.67-19.45,1.37-29.72-13.92-29.87c12.97-6.56,20.77-13.38,2.26-21.53c47.35-13.11,30.42-36.25-5.35-16.03
	c1.82-13.75-8.51-16.93-19.87-19.21c19.73-1.55,30.89-7.07,20.9-22.42c15.88,5.3,24.81,0.92,22.36-19.29
	c12.65,9.94,25.45,15.25,38.53,12.04c-10.66-13.06-19.18-29.46-18.94-46.7c0.09-6.82,11.39-7.13,10.16-1.01
	c-3.12,15.51,1.1,31.26,10.63,47.05c11.98-9.11,14.81-22.58,16.15-36.75c13.21,14.94,22.42,9.34,30.01-4.6
	c3.65,17.28,14.45,16.55,29.48,5.16c-7.57,8.29-10.66,17.42-4.56,28.26c-35.53,20.08-17.35,34.06,12.26,12
	c-6.62,16.16,1.96,18.51,12.25,19.31c-8.35,15.75,5.89,20.82,17.43,26.53c-17.72-1.18-30.94,1.74-35.29,12.75
	c-21.63-27.94-41.62-12.55-18.86,12.99C413.79,393.35,414.11,402.01,427.22,410.8z"/>
<path class="st4" d="M238.6,38.56c9.86-6.21,8.29-16.77,3.11-28.7c8.85,10.95,17.77,17.9,26.94,11.37
	c0.47,15.67,6.66,27.87,25.19,18.01c4.05,39.47,33.19,31.93,26.64-11.9c12.26,10.02,20.45,0.65,27.29-15.11
	c-3.7,19.93,1.61,29.71,16.83,28.32c-12.25,7.83-19.33,15.39-0.1,21.64c-45.8,17.79-26.65,39.12,6.92,15.41
	c-0.44,13.87,10.15,16,21.69,17.13c-19.47,3.52-30.03,10.13-18.55,24.4c-16.33-3.68-24.78,1.57-20.32,21.43
	c-13.58-8.63-26.85-12.62-39.54-8.12c11.91,11.93,22.02,27.4,23.51,44.57c0.59,6.79-10.63,8.24-10.01,2.02
	c1.56-15.74-4.21-30.99-15.28-45.75c-11.01,10.27-12.48,23.95-12.4,38.18c-14.64-13.55-23.25-7.05-29.4,7.58
	c-5.36-16.83-16.04-15.02-29.85-2.19c6.7-9,8.87-18.4,1.72-28.58c33.35-23.54,13.86-35.62-13.4-10.71
	c4.97-16.74-3.8-18.22-14.12-17.99c6.73-16.51-7.94-20.12-19.99-24.65c17.75-0.6,30.61-4.83,33.84-16.22
	c24.31,25.64,42.67,8.32,17.47-14.81C253.7,54.58,252.52,45.99,238.6,38.56L238.6,38.56z M487.82,154.63
	c11.52,1.71,17.2-7.33,21.02-19.75c-0.41,14.08,1.84,25.17,13.05,26.2c-9.84,12.21-13.06,25.5,7.4,30.09
	c-22.59,32.6,4.43,45.88,27.95,8.34c2.79,15.59,15.1,13.82,30.54,6.33c-15.77,12.71-18.1,23.59-5.64,32.47
	c-14.39-2.05-24.68-0.92-14.15,16.36c-46.33-16.36-45.66,12.32-4.77,16.21c-9.35,10.24-2.7,18.76,5.32,27.14
	c-17.06-10.03-29.38-11.89-29.95,6.42c-10-13.44-19.83-14.97-29.36,3.01c-4.7-15.4-12.17-27.09-24.73-31.95
	c1.28,16.82-1.1,35.15-11.14,49.16c-3.97,5.54-13.42-0.68-8.91-4.99c11.42-10.93,16.95-26.27,18.15-44.69
	c-15.03,0.61-25.04,10.03-34.24,20.89c-2.3-19.83-13.06-20.51-27.25-13.42c6.88-16.27-2.4-21.85-21.23-21.12
	c10.94-2.47,18.69-8.18,19.89-20.57c40.62,3.88,33.68-18-3.2-16.86c14.66-9.46,8.96-16.31,0.98-22.86
	c15.84-8.14,7.06-20.45,0.86-31.74c13.86,11.11,26.37,16.29,36.23,9.75c1.78,35.31,26.97,34.14,22.89,0.15
	C488.86,176.64,493.55,169.35,487.82,154.63L487.82,154.63z M404.19,374.46c11.05-3.7,12.02-14.32,9.82-27.14
	c6,12.73,13.02,21.61,23.48,17.44c-3.25,15.34-0.13,28.66,20.2,23.48c-5.41,39.3,24.68,38.9,28.69-5.23
	c9.53,12.64,19.71,5.48,30.09-8.2c-8.32,18.48-5.48,29.24,9.64,31.51c-13.75,4.69-22.42,10.36-5.22,21
	c-48.71,6.4-35.15,31.67,3.07,16.62c-3.71,13.37,6.07,17.95,17.01,21.79c-19.75-1.21-31.57,2.71-23.8,19.3
	c-15-7.46-24.44-4.37-24.82,15.99c-11.15-11.61-23.09-18.64-36.49-17.28c8.74,14.41,14.91,31.84,12.28,48.88
	c-1.04,6.74-12.27,5.48-10.2-0.41c5.25-14.92,3.25-31.1-4.01-48.07c-13.13,7.36-17.8,20.3-21.09,34.14
	c-11.01-16.64-20.91-12.37-30.36,0.38c-1.22-17.62-12.02-18.4-28.48-9.21c8.64-7.16,12.97-15.76,8.44-27.36
	c37.98-14.94,21.9-31.32-10.48-13.59c8.8-15.08,0.62-18.61-9.46-20.83c10.45-14.44-2.95-21.44-13.58-28.69
	c17.38,3.63,30.88,2.58,36.71-7.72c17.54,30.68,39.48,18.22,20.48-10.24C415.07,393.61,415.96,384.99,404.19,374.46L404.19,374.46z
	 M141.63,372.03c9.64-6.55,7.71-17.04,2.13-28.79c9.21,10.64,18.37,17.28,27.31,10.44c1.01,15.65,7.61,27.63,25.79,17.14
	c5.4,39.3,34.26,30.78,26.21-12.8c12.59,9.59,20.46-0.05,26.76-16.04c-3.02,20.04,2.62,29.63,17.79,27.73
	c-11.97,8.24-18.79,16.05,0.64,21.63c-45.17,19.35-25.29,40.01,7.44,15.17c0.03,13.88,10.69,15.64,22.26,16.38
	c-19.34,4.18-29.66,11.15-17.71,25.02c-16.45-3.12-24.71,2.42-19.58,22.11c-13.87-8.16-27.26-11.7-39.8-6.76
	c12.31,11.51,22.95,26.62,25.02,43.74c0.82,6.77-10.34,8.6-9.93,2.36c1.02-15.79-5.27-30.83-16.83-45.2
	c-10.65,10.64-11.66,24.36-11.09,38.58c-15.09-13.04-23.47-6.25-29.13,8.58c-5.93-16.63-16.54-14.46-29.91-1.16
	c6.39-9.23,8.23-18.69,0.74-28.62c32.53-24.66,12.64-36.08-13.76-10.25c4.4-16.9-4.42-18.08-14.73-17.5
	c6.17-16.73-8.62-19.84-20.82-23.95c17.72-1.21,30.43-5.88,33.26-17.37c25.17,24.79,42.93,6.85,16.95-15.4
	C157.27,387.52,155.8,378.98,141.63,372.03L141.63,372.03z M142.42,189.89c-4.5,15.14-12.67,18.01-23.18,13.06
	c-17.62,29.33-38.22,14.76-17.97-14.19c-11.79-0.9-18.48-12.68-22.6-29.98c-2.03,12.72-2.65,27.84-20.15,24.52
	c2.28,10.08,2.58,18.99-14.8,17.44c29.81,21.79,21.86,43.33-7.82,15.28c-8.54,9.04-18.17,8.79-28.31,4
	c15.31,11.01,19.2,21.12,3.8,29.73c15.54,3.13,23.61,10.28,13.27,27.34c13.92-2.91,27.6-4.19,39.84,4.57
	c-12.25,13.8-26.02,22.5-41.73,24.1c-6.21,0.63-2.56,11.35,3.97,9.42c16.51-4.88,29.64-17.88,38.94-31.94
	c6.93,11.56,5.66,25.38-0.08,40.42c18.55-8.33,25.37-1.08,25.01,15.68c11.68-14.1,20.25-5.06,27.57,13.35
	c-1.19-11.54-1.21-22.36,12.45-24.69c-29.88-28.22-12.82-51.27,13.71-9.86c2.29-20.11,11.11-14.67,21.2-4.21
	c-4.38-14.66,4.13-21.82,24.37-22.15c-16.78-3.58-27.58-9.75-20.22-23.78c-41.59,15.16-54.76-11.94-16.95-23.77
	c-13.34-16.21-2.63-24.72,12.61-28.3c-8.21-7.7-3.19-17.84,5.77-28.7C160.48,194.68,150.46,198.33,142.42,189.89z"/>
</svg>
